<mxfile host="app.diagrams.net" agent="Mozilla/5.0 (Macintosh; Intel Mac OS X 10_15_7) AppleWebKit/537.36 (KHTML, like Gecko) Chrome/131.0.0.0 Safari/537.36" version="25.0.3">
  <diagram name="Page-1" id="fmYJaQMX29mMjNIbyM9A">
    <mxGraphModel dx="1368" dy="809" grid="1" gridSize="10" guides="1" tooltips="1" connect="1" arrows="1" fold="1" page="1" pageScale="1" pageWidth="850" pageHeight="1100" math="0" shadow="0">
      <root>
        <mxCell id="0" />
        <mxCell id="1" parent="0" />
        <mxCell id="qgoPzvlYOSubwnuy8MMP-1" value="&lt;b&gt;&lt;font style=&quot;font-size: 18px;&quot;&gt;Client&lt;/font&gt;&lt;/b&gt;" style="whiteSpace=wrap;html=1;" vertex="1" parent="1">
          <mxGeometry x="190" y="80" width="120" height="60" as="geometry" />
        </mxCell>
        <mxCell id="qgoPzvlYOSubwnuy8MMP-2" value="&lt;b&gt;&lt;font style=&quot;font-size: 18px;&quot;&gt;Server&lt;/font&gt;&lt;/b&gt;" style="whiteSpace=wrap;html=1;" vertex="1" parent="1">
          <mxGeometry x="450" y="80" width="120" height="60" as="geometry" />
        </mxCell>
        <mxCell id="qgoPzvlYOSubwnuy8MMP-3" value="" style="endArrow=none;html=1;rounded=0;" edge="1" parent="1">
          <mxGeometry width="50" height="50" relative="1" as="geometry">
            <mxPoint x="260" y="470" as="sourcePoint" />
            <mxPoint x="260" y="140" as="targetPoint" />
          </mxGeometry>
        </mxCell>
        <mxCell id="qgoPzvlYOSubwnuy8MMP-4" value="" style="endArrow=none;html=1;rounded=0;" edge="1" parent="1">
          <mxGeometry width="50" height="50" relative="1" as="geometry">
            <mxPoint x="520" y="470" as="sourcePoint" />
            <mxPoint x="520" y="140" as="targetPoint" />
          </mxGeometry>
        </mxCell>
        <mxCell id="qgoPzvlYOSubwnuy8MMP-5" value="" style="endArrow=classic;html=1;rounded=0;" edge="1" parent="1">
          <mxGeometry width="50" height="50" relative="1" as="geometry">
            <mxPoint x="260" y="190" as="sourcePoint" />
            <mxPoint x="520" y="180" as="targetPoint" />
          </mxGeometry>
        </mxCell>
        <mxCell id="qgoPzvlYOSubwnuy8MMP-7" value="Http 1.0" style="text;html=1;align=center;verticalAlign=middle;resizable=0;points=[];autosize=1;strokeColor=none;fillColor=none;fontSize=17;" vertex="1" parent="1">
          <mxGeometry x="190" y="38" width="80" height="30" as="geometry" />
        </mxCell>
        <mxCell id="qgoPzvlYOSubwnuy8MMP-8" value="open connection" style="text;html=1;align=center;verticalAlign=middle;resizable=0;points=[];autosize=1;strokeColor=none;fillColor=none;" vertex="1" parent="1">
          <mxGeometry x="160" y="198" width="110" height="30" as="geometry" />
        </mxCell>
        <mxCell id="qgoPzvlYOSubwnuy8MMP-9" value="Get /page1.html" style="text;html=1;align=center;verticalAlign=middle;resizable=0;points=[];autosize=1;strokeColor=none;fillColor=none;" vertex="1" parent="1">
          <mxGeometry x="300" y="158" width="110" height="30" as="geometry" />
        </mxCell>
        <mxCell id="qgoPzvlYOSubwnuy8MMP-10" value="" style="edgeStyle=none;orthogonalLoop=1;jettySize=auto;html=1;rounded=0;" edge="1" parent="1">
          <mxGeometry width="100" relative="1" as="geometry">
            <mxPoint x="510" y="230" as="sourcePoint" />
            <mxPoint x="260" y="240" as="targetPoint" />
            <Array as="points" />
          </mxGeometry>
        </mxCell>
        <mxCell id="qgoPzvlYOSubwnuy8MMP-11" value="sent /page1.html" style="text;html=1;align=center;verticalAlign=middle;resizable=0;points=[];autosize=1;strokeColor=none;fillColor=none;" vertex="1" parent="1">
          <mxGeometry x="315" y="198" width="110" height="30" as="geometry" />
        </mxCell>
        <mxCell id="qgoPzvlYOSubwnuy8MMP-12" value="Close connection&lt;div&gt;&lt;br&gt;&lt;/div&gt;" style="text;html=1;align=center;verticalAlign=middle;resizable=0;points=[];autosize=1;strokeColor=none;fillColor=none;" vertex="1" parent="1">
          <mxGeometry x="140" y="370" width="120" height="40" as="geometry" />
        </mxCell>
        <mxCell id="qgoPzvlYOSubwnuy8MMP-17" value="" style="endArrow=classic;html=1;rounded=0;exitX=1.006;exitY=0.033;exitDx=0;exitDy=0;exitPerimeter=0;" edge="1" parent="1" source="qgoPzvlYOSubwnuy8MMP-21">
          <mxGeometry width="50" height="50" relative="1" as="geometry">
            <mxPoint x="270" y="335" as="sourcePoint" />
            <mxPoint x="529" y="294" as="targetPoint" />
          </mxGeometry>
        </mxCell>
        <mxCell id="qgoPzvlYOSubwnuy8MMP-18" value="Get /image.png" style="text;html=1;align=center;verticalAlign=middle;resizable=0;points=[];autosize=1;strokeColor=none;fillColor=none;" vertex="1" parent="1">
          <mxGeometry x="320" y="263" width="110" height="30" as="geometry" />
        </mxCell>
        <mxCell id="qgoPzvlYOSubwnuy8MMP-19" value="" style="edgeStyle=none;orthogonalLoop=1;jettySize=auto;html=1;rounded=0;entryX=1.006;entryY=0.292;entryDx=0;entryDy=0;entryPerimeter=0;" edge="1" parent="1" target="qgoPzvlYOSubwnuy8MMP-12">
          <mxGeometry width="100" relative="1" as="geometry">
            <mxPoint x="519" y="344" as="sourcePoint" />
            <mxPoint x="269" y="384" as="targetPoint" />
            <Array as="points" />
          </mxGeometry>
        </mxCell>
        <mxCell id="qgoPzvlYOSubwnuy8MMP-20" value="sent /image.png" style="text;html=1;align=center;verticalAlign=middle;resizable=0;points=[];autosize=1;strokeColor=none;fillColor=none;" vertex="1" parent="1">
          <mxGeometry x="320" y="320" width="110" height="30" as="geometry" />
        </mxCell>
        <mxCell id="qgoPzvlYOSubwnuy8MMP-21" value="open connection" style="text;html=1;align=center;verticalAlign=middle;resizable=0;points=[];autosize=1;strokeColor=none;fillColor=none;" vertex="1" parent="1">
          <mxGeometry x="150" y="310" width="110" height="30" as="geometry" />
        </mxCell>
        <mxCell id="qgoPzvlYOSubwnuy8MMP-22" value="Close connection&lt;div&gt;&lt;br&gt;&lt;/div&gt;" style="text;html=1;align=center;verticalAlign=middle;resizable=0;points=[];autosize=1;strokeColor=none;fillColor=none;" vertex="1" parent="1">
          <mxGeometry x="140" y="263" width="120" height="40" as="geometry" />
        </mxCell>
        <mxCell id="qgoPzvlYOSubwnuy8MMP-23" value="&lt;b&gt;&lt;font style=&quot;font-size: 18px;&quot;&gt;Client&lt;/font&gt;&lt;/b&gt;" style="whiteSpace=wrap;html=1;" vertex="1" parent="1">
          <mxGeometry x="190" y="642" width="120" height="60" as="geometry" />
        </mxCell>
        <mxCell id="qgoPzvlYOSubwnuy8MMP-24" value="&lt;b&gt;&lt;font style=&quot;font-size: 18px;&quot;&gt;Server&lt;/font&gt;&lt;/b&gt;" style="whiteSpace=wrap;html=1;" vertex="1" parent="1">
          <mxGeometry x="450" y="642" width="120" height="60" as="geometry" />
        </mxCell>
        <mxCell id="qgoPzvlYOSubwnuy8MMP-25" value="" style="endArrow=none;html=1;rounded=0;" edge="1" parent="1">
          <mxGeometry width="50" height="50" relative="1" as="geometry">
            <mxPoint x="260" y="1032" as="sourcePoint" />
            <mxPoint x="260" y="702" as="targetPoint" />
          </mxGeometry>
        </mxCell>
        <mxCell id="qgoPzvlYOSubwnuy8MMP-26" value="" style="endArrow=none;html=1;rounded=0;" edge="1" parent="1">
          <mxGeometry width="50" height="50" relative="1" as="geometry">
            <mxPoint x="520" y="1032" as="sourcePoint" />
            <mxPoint x="520" y="702" as="targetPoint" />
          </mxGeometry>
        </mxCell>
        <mxCell id="qgoPzvlYOSubwnuy8MMP-27" value="" style="endArrow=classic;html=1;rounded=0;" edge="1" parent="1">
          <mxGeometry width="50" height="50" relative="1" as="geometry">
            <mxPoint x="260" y="782" as="sourcePoint" />
            <mxPoint x="520" y="742" as="targetPoint" />
          </mxGeometry>
        </mxCell>
        <mxCell id="qgoPzvlYOSubwnuy8MMP-28" value="Http 1.2" style="text;html=1;align=center;verticalAlign=middle;resizable=0;points=[];autosize=1;strokeColor=none;fillColor=none;fontStyle=1;fontSize=17;" vertex="1" parent="1">
          <mxGeometry x="190" y="600" width="80" height="30" as="geometry" />
        </mxCell>
        <mxCell id="qgoPzvlYOSubwnuy8MMP-29" value="open connection" style="text;html=1;align=center;verticalAlign=middle;resizable=0;points=[];autosize=1;strokeColor=none;fillColor=none;" vertex="1" parent="1">
          <mxGeometry x="160" y="760" width="110" height="30" as="geometry" />
        </mxCell>
        <mxCell id="qgoPzvlYOSubwnuy8MMP-30" value="Get /page1.html" style="text;html=1;align=center;verticalAlign=middle;resizable=0;points=[];autosize=1;strokeColor=none;fillColor=none;" vertex="1" parent="1">
          <mxGeometry x="300" y="720" width="110" height="30" as="geometry" />
        </mxCell>
        <mxCell id="qgoPzvlYOSubwnuy8MMP-31" value="" style="edgeStyle=none;orthogonalLoop=1;jettySize=auto;html=1;rounded=0;fillColor=#d5e8d4;strokeColor=#82b366;" edge="1" parent="1">
          <mxGeometry width="100" relative="1" as="geometry">
            <mxPoint x="510" y="792" as="sourcePoint" />
            <mxPoint x="260" y="832" as="targetPoint" />
            <Array as="points" />
          </mxGeometry>
        </mxCell>
        <mxCell id="qgoPzvlYOSubwnuy8MMP-32" value="sent /page1.html" style="text;html=1;align=center;verticalAlign=middle;resizable=0;points=[];autosize=1;strokeColor=none;fillColor=none;" vertex="1" parent="1">
          <mxGeometry x="285" y="782" width="110" height="30" as="geometry" />
        </mxCell>
        <mxCell id="qgoPzvlYOSubwnuy8MMP-33" value="Close connection&lt;div&gt;&lt;br&gt;&lt;/div&gt;" style="text;html=1;align=center;verticalAlign=middle;resizable=0;points=[];autosize=1;strokeColor=none;fillColor=none;" vertex="1" parent="1">
          <mxGeometry x="140" y="932" width="120" height="40" as="geometry" />
        </mxCell>
        <mxCell id="qgoPzvlYOSubwnuy8MMP-34" value="" style="endArrow=classic;html=1;rounded=0;" edge="1" parent="1">
          <mxGeometry width="50" height="50" relative="1" as="geometry">
            <mxPoint x="269" y="896" as="sourcePoint" />
            <mxPoint x="529" y="856" as="targetPoint" />
          </mxGeometry>
        </mxCell>
        <mxCell id="qgoPzvlYOSubwnuy8MMP-35" value="Get /image.png" style="text;html=1;align=center;verticalAlign=middle;resizable=0;points=[];autosize=1;strokeColor=none;fillColor=none;" vertex="1" parent="1">
          <mxGeometry x="309" y="834" width="110" height="30" as="geometry" />
        </mxCell>
        <mxCell id="qgoPzvlYOSubwnuy8MMP-36" value="" style="edgeStyle=none;orthogonalLoop=1;jettySize=auto;html=1;rounded=0;" edge="1" parent="1">
          <mxGeometry width="100" relative="1" as="geometry">
            <mxPoint x="519" y="906" as="sourcePoint" />
            <mxPoint x="269" y="946" as="targetPoint" />
            <Array as="points" />
          </mxGeometry>
        </mxCell>
        <mxCell id="qgoPzvlYOSubwnuy8MMP-37" value="sent /image.png" style="text;html=1;align=center;verticalAlign=middle;resizable=0;points=[];autosize=1;strokeColor=none;fillColor=none;" vertex="1" parent="1">
          <mxGeometry x="294" y="896" width="110" height="30" as="geometry" />
        </mxCell>
        <mxCell id="qgoPzvlYOSubwnuy8MMP-40" value="&lt;b&gt;&lt;font style=&quot;font-size: 18px;&quot;&gt;Client&lt;/font&gt;&lt;/b&gt;" style="whiteSpace=wrap;html=1;" vertex="1" parent="1">
          <mxGeometry x="750" y="102" width="120" height="60" as="geometry" />
        </mxCell>
        <mxCell id="qgoPzvlYOSubwnuy8MMP-41" value="&lt;b&gt;&lt;font style=&quot;font-size: 18px;&quot;&gt;Server&lt;/font&gt;&lt;/b&gt;" style="whiteSpace=wrap;html=1;" vertex="1" parent="1">
          <mxGeometry x="1010" y="102" width="120" height="60" as="geometry" />
        </mxCell>
        <mxCell id="qgoPzvlYOSubwnuy8MMP-42" value="" style="endArrow=none;html=1;rounded=0;" edge="1" parent="1">
          <mxGeometry width="50" height="50" relative="1" as="geometry">
            <mxPoint x="820" y="492" as="sourcePoint" />
            <mxPoint x="820" y="162" as="targetPoint" />
          </mxGeometry>
        </mxCell>
        <mxCell id="qgoPzvlYOSubwnuy8MMP-43" value="" style="endArrow=none;html=1;rounded=0;" edge="1" parent="1">
          <mxGeometry width="50" height="50" relative="1" as="geometry">
            <mxPoint x="1080" y="492" as="sourcePoint" />
            <mxPoint x="1080" y="162" as="targetPoint" />
          </mxGeometry>
        </mxCell>
        <mxCell id="qgoPzvlYOSubwnuy8MMP-44" value="" style="endArrow=classic;html=1;rounded=0;" edge="1" parent="1">
          <mxGeometry width="50" height="50" relative="1" as="geometry">
            <mxPoint x="820" y="202" as="sourcePoint" />
            <mxPoint x="1080" y="202" as="targetPoint" />
          </mxGeometry>
        </mxCell>
        <mxCell id="qgoPzvlYOSubwnuy8MMP-45" value="Websocket" style="text;html=1;align=center;verticalAlign=middle;resizable=0;points=[];autosize=1;strokeColor=none;fillColor=none;fontSize=17;" vertex="1" parent="1">
          <mxGeometry x="735" y="60" width="110" height="30" as="geometry" />
        </mxCell>
        <mxCell id="qgoPzvlYOSubwnuy8MMP-46" value="open connection" style="text;html=1;align=center;verticalAlign=middle;resizable=0;points=[];autosize=1;strokeColor=none;fillColor=none;" vertex="1" parent="1">
          <mxGeometry x="720" y="220" width="110" height="30" as="geometry" />
        </mxCell>
        <mxCell id="qgoPzvlYOSubwnuy8MMP-48" value="" style="edgeStyle=none;orthogonalLoop=1;jettySize=auto;html=1;rounded=0;fillColor=#ffe6cc;strokeColor=#d79b00;" edge="1" parent="1">
          <mxGeometry width="100" relative="1" as="geometry">
            <mxPoint x="1070" y="252" as="sourcePoint" />
            <mxPoint x="830" y="260" as="targetPoint" />
            <Array as="points" />
          </mxGeometry>
        </mxCell>
        <mxCell id="qgoPzvlYOSubwnuy8MMP-50" value="Close connection&lt;div&gt;&lt;br&gt;&lt;/div&gt;" style="text;html=1;align=center;verticalAlign=middle;resizable=0;points=[];autosize=1;strokeColor=none;fillColor=none;" vertex="1" parent="1">
          <mxGeometry x="700" y="392" width="120" height="40" as="geometry" />
        </mxCell>
        <mxCell id="qgoPzvlYOSubwnuy8MMP-58" value="Get 1.1 upgrade" style="text;html=1;align=center;verticalAlign=middle;resizable=0;points=[];autosize=1;fontStyle=1;fontSize=17;" vertex="1" parent="1">
          <mxGeometry x="849" y="158" width="150" height="30" as="geometry" />
        </mxCell>
        <mxCell id="qgoPzvlYOSubwnuy8MMP-59" value="101 Switch protocols" style="text;html=1;align=center;verticalAlign=middle;resizable=0;points=[];autosize=1;strokeColor=none;fillColor=none;fontStyle=1;fontSize=17;" vertex="1" parent="1">
          <mxGeometry x="850" y="220" width="180" height="30" as="geometry" />
        </mxCell>
        <mxCell id="qgoPzvlYOSubwnuy8MMP-60" value="" style="endArrow=classic;html=1;rounded=0;" edge="1" parent="1">
          <mxGeometry width="50" height="50" relative="1" as="geometry">
            <mxPoint x="820" y="324.33" as="sourcePoint" />
            <mxPoint x="1080" y="324.33" as="targetPoint" />
          </mxGeometry>
        </mxCell>
        <mxCell id="qgoPzvlYOSubwnuy8MMP-61" value="" style="edgeStyle=none;orthogonalLoop=1;jettySize=auto;html=1;rounded=0;fillColor=#ffe6cc;strokeColor=#d79b00;" edge="1" parent="1">
          <mxGeometry width="100" relative="1" as="geometry">
            <mxPoint x="1080" y="450" as="sourcePoint" />
            <mxPoint x="820" y="458" as="targetPoint" />
            <Array as="points" />
          </mxGeometry>
        </mxCell>
        <mxCell id="qgoPzvlYOSubwnuy8MMP-62" value="" style="edgeStyle=none;orthogonalLoop=1;jettySize=auto;html=1;rounded=0;fillColor=#ffe6cc;strokeColor=#d79b00;" edge="1" parent="1">
          <mxGeometry width="100" relative="1" as="geometry">
            <mxPoint x="1080" y="345" as="sourcePoint" />
            <mxPoint x="820" y="353" as="targetPoint" />
            <Array as="points" />
          </mxGeometry>
        </mxCell>
        <mxCell id="qgoPzvlYOSubwnuy8MMP-63" value="" style="edgeStyle=none;orthogonalLoop=1;jettySize=auto;html=1;rounded=0;fillColor=#ffe6cc;strokeColor=#d79b00;entryX=1.006;entryY=0.875;entryDx=0;entryDy=0;entryPerimeter=0;" edge="1" parent="1" target="qgoPzvlYOSubwnuy8MMP-50">
          <mxGeometry width="100" relative="1" as="geometry">
            <mxPoint x="1080" y="420" as="sourcePoint" />
            <mxPoint x="840" y="428" as="targetPoint" />
            <Array as="points" />
          </mxGeometry>
        </mxCell>
        <mxCell id="qgoPzvlYOSubwnuy8MMP-64" value="" style="edgeStyle=none;orthogonalLoop=1;jettySize=auto;html=1;rounded=0;fillColor=#ffe6cc;strokeColor=#d79b00;entryX=1.006;entryY=0.175;entryDx=0;entryDy=0;entryPerimeter=0;" edge="1" parent="1" target="qgoPzvlYOSubwnuy8MMP-50">
          <mxGeometry width="100" relative="1" as="geometry">
            <mxPoint x="1080" y="392" as="sourcePoint" />
            <mxPoint x="840" y="400" as="targetPoint" />
            <Array as="points" />
          </mxGeometry>
        </mxCell>
        <mxCell id="qgoPzvlYOSubwnuy8MMP-65" value="" style="endArrow=classic;html=1;rounded=0;" edge="1" parent="1">
          <mxGeometry width="50" height="50" relative="1" as="geometry">
            <mxPoint x="820" y="440" as="sourcePoint" />
            <mxPoint x="1080" y="440" as="targetPoint" />
          </mxGeometry>
        </mxCell>
        <mxCell id="qgoPzvlYOSubwnuy8MMP-83" value="&lt;b&gt;&lt;font style=&quot;font-size: 18px;&quot;&gt;Client&lt;/font&gt;&lt;/b&gt;" style="whiteSpace=wrap;html=1;" vertex="1" parent="1">
          <mxGeometry x="749" y="652" width="120" height="60" as="geometry" />
        </mxCell>
        <mxCell id="qgoPzvlYOSubwnuy8MMP-84" value="&lt;b&gt;&lt;font style=&quot;font-size: 18px;&quot;&gt;Server&lt;/font&gt;&lt;/b&gt;" style="whiteSpace=wrap;html=1;" vertex="1" parent="1">
          <mxGeometry x="1009" y="652" width="120" height="60" as="geometry" />
        </mxCell>
        <mxCell id="qgoPzvlYOSubwnuy8MMP-85" value="" style="endArrow=none;html=1;rounded=0;" edge="1" parent="1">
          <mxGeometry width="50" height="50" relative="1" as="geometry">
            <mxPoint x="819" y="1042" as="sourcePoint" />
            <mxPoint x="819" y="712" as="targetPoint" />
          </mxGeometry>
        </mxCell>
        <mxCell id="qgoPzvlYOSubwnuy8MMP-86" value="" style="endArrow=none;html=1;rounded=0;" edge="1" parent="1">
          <mxGeometry width="50" height="50" relative="1" as="geometry">
            <mxPoint x="1079" y="1042" as="sourcePoint" />
            <mxPoint x="1079" y="712" as="targetPoint" />
          </mxGeometry>
        </mxCell>
        <mxCell id="qgoPzvlYOSubwnuy8MMP-87" value="" style="endArrow=classic;html=1;rounded=0;" edge="1" parent="1">
          <mxGeometry width="50" height="50" relative="1" as="geometry">
            <mxPoint x="819" y="752" as="sourcePoint" />
            <mxPoint x="1079" y="752" as="targetPoint" />
          </mxGeometry>
        </mxCell>
        <mxCell id="qgoPzvlYOSubwnuy8MMP-88" value="SSE" style="text;html=1;align=center;verticalAlign=middle;resizable=0;points=[];autosize=1;strokeColor=none;fillColor=none;fontSize=16;fontStyle=1" vertex="1" parent="1">
          <mxGeometry x="759" y="610" width="60" height="30" as="geometry" />
        </mxCell>
        <mxCell id="qgoPzvlYOSubwnuy8MMP-89" value="open connection" style="text;html=1;align=center;verticalAlign=middle;resizable=0;points=[];autosize=1;strokeColor=none;fillColor=none;" vertex="1" parent="1">
          <mxGeometry x="719" y="770" width="110" height="30" as="geometry" />
        </mxCell>
        <mxCell id="qgoPzvlYOSubwnuy8MMP-90" value="" style="edgeStyle=none;orthogonalLoop=1;jettySize=auto;html=1;rounded=0;fillColor=#ffe6cc;strokeColor=#d79b00;" edge="1" parent="1">
          <mxGeometry width="100" relative="1" as="geometry">
            <mxPoint x="1080" y="800" as="sourcePoint" />
            <mxPoint x="820" y="810" as="targetPoint" />
            <Array as="points" />
          </mxGeometry>
        </mxCell>
        <mxCell id="qgoPzvlYOSubwnuy8MMP-91" value="sent text/event-stream" style="text;html=1;align=center;verticalAlign=middle;resizable=0;points=[];autosize=1;fontStyle=1;fontSize=17;" vertex="1" parent="1">
          <mxGeometry x="828" y="708" width="190" height="30" as="geometry" />
        </mxCell>
        <mxCell id="qgoPzvlYOSubwnuy8MMP-94" value="" style="edgeStyle=none;orthogonalLoop=1;jettySize=auto;html=1;rounded=0;fillColor=#ffe6cc;strokeColor=#d79b00;" edge="1" parent="1">
          <mxGeometry width="100" relative="1" as="geometry">
            <mxPoint x="1080" y="990" as="sourcePoint" />
            <mxPoint x="820" y="998" as="targetPoint" />
            <Array as="points" />
          </mxGeometry>
        </mxCell>
        <mxCell id="qgoPzvlYOSubwnuy8MMP-95" value="" style="edgeStyle=none;orthogonalLoop=1;jettySize=auto;html=1;rounded=0;fillColor=#ffe6cc;strokeColor=#d79b00;" edge="1" parent="1">
          <mxGeometry width="100" relative="1" as="geometry">
            <mxPoint x="1080" y="864" as="sourcePoint" />
            <mxPoint x="820" y="872" as="targetPoint" />
            <Array as="points" />
          </mxGeometry>
        </mxCell>
        <mxCell id="qgoPzvlYOSubwnuy8MMP-96" value="" style="edgeStyle=none;orthogonalLoop=1;jettySize=auto;html=1;rounded=0;fillColor=#ffe6cc;strokeColor=#d79b00;entryX=1.006;entryY=0.875;entryDx=0;entryDy=0;entryPerimeter=0;" edge="1" parent="1">
          <mxGeometry width="100" relative="1" as="geometry">
            <mxPoint x="1079" y="948.5" as="sourcePoint" />
            <mxPoint x="820" y="955.5" as="targetPoint" />
            <Array as="points" />
          </mxGeometry>
        </mxCell>
        <mxCell id="qgoPzvlYOSubwnuy8MMP-97" value="" style="edgeStyle=none;orthogonalLoop=1;jettySize=auto;html=1;rounded=0;fillColor=#ffe6cc;strokeColor=#d79b00;entryX=1.006;entryY=0.175;entryDx=0;entryDy=0;entryPerimeter=0;" edge="1" parent="1">
          <mxGeometry width="100" relative="1" as="geometry">
            <mxPoint x="1079" y="907.5" as="sourcePoint" />
            <mxPoint x="820" y="914.5" as="targetPoint" />
            <Array as="points" />
          </mxGeometry>
        </mxCell>
        <mxCell id="qgoPzvlYOSubwnuy8MMP-100" value="text/event-stream" style="text;html=1;align=center;verticalAlign=middle;resizable=0;points=[];autosize=1;fontStyle=1;fontSize=17;" vertex="1" parent="1">
          <mxGeometry x="870" y="770" width="150" height="30" as="geometry" />
        </mxCell>
        <mxCell id="qgoPzvlYOSubwnuy8MMP-101" value="send chunks" style="text;html=1;align=center;verticalAlign=middle;resizable=0;points=[];autosize=1;strokeColor=none;fillColor=none;" vertex="1" parent="1">
          <mxGeometry x="900" y="812" width="90" height="30" as="geometry" />
        </mxCell>
        <mxCell id="qgoPzvlYOSubwnuy8MMP-103" value="Why SSE ?" style="text;html=1;align=center;verticalAlign=middle;resizable=0;points=[];autosize=1;strokeColor=none;fillColor=none;fontSize=17;fontStyle=1" vertex="1" parent="1">
          <mxGeometry x="330" y="1160" width="110" height="30" as="geometry" />
        </mxCell>
        <mxCell id="qgoPzvlYOSubwnuy8MMP-104" value="Cannot proxy request&lt;div&gt;not a two way communicaiton as like websocket&lt;/div&gt;&lt;div&gt;&lt;br&gt;&lt;/div&gt;&lt;div&gt;&lt;br&gt;&lt;/div&gt;&lt;div&gt;&lt;br&gt;&lt;/div&gt;&lt;div&gt;Lightweight&lt;/div&gt;&lt;div&gt;Easy to implement&lt;/div&gt;&lt;div&gt;create eventsource and start listening&amp;nbsp;&lt;/div&gt;" style="whiteSpace=wrap;html=1;align=left;fontSize=19;" vertex="1" parent="1">
          <mxGeometry x="150" y="1212" width="470" height="320" as="geometry" />
        </mxCell>
      </root>
    </mxGraphModel>
  </diagram>
</mxfile>
